<svg width="27" height="25" viewBox="0 0 27 25" fill="none" xmlns="http://www.w3.org/2000/svg">
<path d="M19.125 19.125C17.8824 19.125 16.875 20.1324 16.875 21.375C16.875 22.6176 17.8824 23.625 19.125 23.625C20.3676 23.625 21.375 22.6176 21.375 21.375C21.375 20.1324 20.3676 19.125 19.125 19.125ZM19.125 19.125H10.4557C9.937 19.125 9.67717 19.125 9.46362 19.0327C9.27524 18.9513 9.11181 18.8203 8.99273 18.6531C8.85927 18.4658 8.80559 18.2152 8.69934 17.7193L5.93042 4.79773C5.82169 4.29034 5.7666 4.03692 5.63159 3.84741C5.51252 3.68027 5.34911 3.54871 5.16073 3.4673C4.94714 3.375 4.68876 3.375 4.16985 3.375H3.375M6.75 6.75H21.2324C22.0444 6.75 22.45 6.75 22.7225 6.91915C22.9612 7.06732 23.136 7.2997 23.2122 7.57013C23.2992 7.87886 23.1874 8.26871 22.9624 9.04889L21.4047 14.4489C21.2701 14.9154 21.2028 15.1482 21.0663 15.3212C20.9458 15.474 20.7869 15.5936 20.6067 15.6671C20.4031 15.75 20.1612 15.75 19.6786 15.75H8.69678M9 23.625C7.75736 23.625 6.75 22.6176 6.75 21.375C6.75 20.1324 7.75736 19.125 9 19.125C10.2426 19.125 11.25 20.1324 11.25 21.375C11.25 22.6176 10.2426 23.625 9 23.625Z" stroke="white" stroke-width="2" stroke-linecap="round" stroke-linejoin="round"/>
</svg>
