<?xml version="1.0" encoding="utf-8"?>
<!-- Generator: Adobe Illustrator 15.0.2, SVG Export Plug-In . SVG Version: 6.00 Build 0)  -->
<!DOCTYPE svg PUBLIC "-//W3C//DTD SVG 1.1//EN" "http://www.w3.org/Graphics/SVG/1.1/DTD/svg11.dtd">
<svg version="1.1" xmlns="http://www.w3.org/2000/svg" xmlns:xlink="http://www.w3.org/1999/xlink" x="0px" y="0px"
	 width="185.083px" height="115.648px" viewBox="0 0 185.083 115.648" enable-background="new 0 0 185.083 115.648"
	 xml:space="preserve">
<g id="Layer_2">
</g>
<g id="Layer_1">
	<g>
		<path fill="#09297F" d="M168.581,99.056H0V16.525h168.584v0.005c9.111,0,16.498,7.389,16.498,16.502v49.519
			c0,9.113-7.387,16.5-16.502,16.5V99.056z"/>
		<path fill="#F6AB00" d="M168.581,94.928c6.861,0,12.418-5.606,12.418-12.463l-0.084-49.432c0-6.86-5.473-12.382-12.33-12.382l0,0
			H4.124v74.277H168.581z"/>
		<path fill="#09297F" d="M0.004,16.522c0-9.112,7.391-16.499,16.502-16.499h2.993L46.796,0c7.619-0.009,16.105,5.803,18.856,12.907
			L78.27,45.531c2.494,6.442,2.463,18.123,0,24.638l-12.369,32.557c-2.712,7.123-11.167,12.936-18.789,12.922l-27.613-0.059
			l-2.993-0.036c-9.111,0-16.502-7.384-16.502-16.497L0,16.522H0.004z"/>
		<path fill="#FFFFFF" d="M45.83,51.638c0-4.228-1.96-7.043-7.749-7.043c-3.218,0-7.844,1.459-7.844,2.315
			c0,0.253,0.049,0.4,0.151,0.651l0.649,1.764c0.053,0.149,0.204,0.251,0.352,0.251c0.456,0,2.768-1.609,6.14-1.609
			c3.569,0,4.476,1.609,4.476,4.524v1.813c-3.119,0.1-13.173,0.25-13.173,8.749c0,4.475,2.558,7.09,6.533,7.09
			c5.877,0,10.465-0.944,10.465-7.788V51.638z M42.005,64.56c-0.074,1.593-3.119,2.264-5.729,2.264c-2.567,0-3.674-2.061-3.674-4.07
			c0-5.283,7.193-5.283,9.403-5.334V64.56"/>
		<path fill="#09297F" d="M161.338,51.638c0-4.228-1.965-7.043-7.742-7.043c-3.229,0-7.852,1.459-7.852,2.315
			c0,0.253,0.053,0.4,0.148,0.651l0.652,1.764c0.053,0.149,0.207,0.251,0.355,0.251c0.453,0,2.768-1.609,6.137-1.609
			c3.572,0,4.479,1.609,4.479,4.524v1.813c-3.119,0.1-13.18,0.25-13.18,8.749c0,4.475,2.564,7.09,6.541,7.09
			c5.877,0,10.461-0.944,10.461-7.788V51.638z M157.516,64.56c-0.078,1.593-3.119,2.264-5.732,2.264
			c-2.568,0-3.682-2.061-3.682-4.07c0-5.283,7.197-5.283,9.414-5.334V64.56"/>
		<path fill="#FFFFFF" d="M8.251,79.353c0,0.25,0,0.652,0.352,0.652c0.354-0.048,0.204,0,0.607-0.101l2.512-0.604
			c0.2-0.047,0.352-0.251,0.352-0.602V68.437c1.359,0.857,3.066,1.706,6.14,1.706c5.831,0,8.396-6.033,8.396-13.274
			c0-6.237-2.459-12.273-7.847-12.273c-5.522,0-10.511,2.315-10.511,8.653V79.353z M12.073,52.313
			c-0.004-1.208,0.369-4.37,5.985-4.345c4.075,0.018,4.423,4.779,4.423,9.001c0,4.879-0.397,9.809-4.725,9.809
			c-2.512,0-4.075-0.804-5.684-1.659C12.073,65.119,12.084,54.295,12.073,52.313"/>
		<path fill="#FFFFFF" d="M64.117,68.26c-1.359,0.856-3.229,1.883-6.299,1.883c-5.834,0-8.398-6.033-8.398-13.081V45.203
			c0-0.402,0.2-0.603,0.604-0.603h2.561c0.555,0,0.657,0.302,0.657,0.753l-0.021,11.615c0,4.879,0.724,9.809,5.051,9.809
			c2.516,0,4.075-0.804,5.684-1.659c0,0-0.01-10.823,0-12.806v-7.157c0-0.402,0.204-0.606,0.601-0.606h2.564
			c0.556,0,0.657,0.304,0.657,0.757v7.942v11.104c0,7.207,0,9.938-0.64,13.392c-0.425,2.299-2.399,4.496-5.072,5.208
			c-2.771,0.744-6.575-0.059-6.769-0.787c-0.032-0.099-0.007-0.206,0.018-0.318l0.449-2.201c0.011-0.159,0.127-0.297,0.274-0.335
			c0.537-0.142,2.789,1.282,5.17,0.646c1.806-0.485,2.688-2.58,2.835-5.122L64.117,68.26z"/>
		<path fill="#09297F" d="M102.629,33.672c0-0.251,0-0.655-0.354-0.655c-0.352,0.051-0.201,0-0.602,0.102l-2.512,0.603
			c-0.199,0.051-0.354,0.253-0.354,0.604v11.98c-1.357-0.849-3.068-1.711-6.135-1.711c-5.838,0-8.402,6.037-8.402,13.278
			c0,6.237,2.467,12.27,7.844,12.27c5.533,0,10.514-2.31,10.514-8.648V33.672z M98.809,62.435c0.006,1.207-0.369,4.368-5.982,4.343
			c-4.078-0.02-4.43-4.781-4.43-9.005c0-4.877,0.4-9.806,4.729-9.806c2.514,0,4.074,0.805,5.684,1.662
			C98.809,49.629,98.801,60.444,98.809,62.435"/>
		<path fill="#09297F" d="M125.659,57.222c0-7.092-2.914-12.626-9.807-12.626c-7.293,0-10.209,5.938-10.209,12.876
			c0,7.194,2.916,12.672,9.707,12.672C122.692,70.143,125.659,64.265,125.659,57.222z M115.704,67.031
			c-4.625,0-5.939-4.277-5.939-10.009c0-4.979,1.363-9.307,5.887-9.307c4.529,0,5.885,4.53,5.885,9.455
			C121.536,62.956,120.18,67.031,115.704,67.031"/>
		<path fill="#09297F" d="M132.579,68.839c0,0.402-0.199,0.604-0.604,0.604h-2.617c-0.4,0-0.604-0.201-0.604-0.604V34.336
			c0-0.353,0.15-0.555,0.354-0.604l2.516-0.603c0.4-0.097,0.246-0.053,0.607-0.097c0.348,0,0.348,0.399,0.348,0.648V68.839z"/>
		<path fill="#09297F" d="M140.967,68.839c0,0.402-0.199,0.604-0.6,0.604h-2.621c-0.396,0-0.598-0.201-0.598-0.604V34.336
			c0-0.353,0.145-0.555,0.348-0.604l2.516-0.603c0.404-0.097,0.252-0.053,0.607-0.097c0.348,0,0.348,0.399,0.348,0.648V68.839z"/>
		<path fill="#09297F" d="M168.889,68.839c0,0.402-0.203,0.604-0.604,0.604h-2.613c-0.404,0-0.607-0.201-0.607-0.604V51.583
			c0-6.005,6.389-6.988,9.305-6.988c1.158,0,2.467,0.402,2.467,0.862c0,0.093-0.086,0.258-0.152,0.397l-1.016,2.285
			c-0.055,0.1-0.076,0.286-0.26,0.286c-0.252,0-0.762-0.383-1.826-0.383c-1.756,0-4.693,0.041-4.693,3.432V68.839z"/>
		<path fill="#09297F" d="M125.659,57.222c0-7.092-2.914-12.626-9.807-12.626c-7.293,0-10.209,5.938-10.209,12.876
			c0,7.194,2.916,12.672,9.707,12.672C122.692,70.143,125.659,64.265,125.659,57.222z M115.704,67.031
			c-4.625,0-5.939-4.277-5.939-10.009c0-4.979,1.363-9.307,5.887-9.307c4.529,0,5.885,4.53,5.885,9.455
			C121.536,62.956,120.18,67.031,115.704,67.031"/>
		<path fill="#09297F" d="M132.579,68.839c0,0.402-0.199,0.604-0.604,0.604h-2.617c-0.4,0-0.604-0.201-0.604-0.604V34.336
			c0-0.353,0.15-0.555,0.354-0.604l2.516-0.603c0.4-0.097,0.246-0.053,0.607-0.097c0.348,0,0.348,0.399,0.348,0.648V68.839z"/>
		<path fill="#09297F" d="M140.967,68.839c0,0.402-0.199,0.604-0.6,0.604h-2.621c-0.396,0-0.598-0.201-0.598-0.604V34.336
			c0-0.353,0.145-0.555,0.348-0.604l2.516-0.603c0.404-0.097,0.252-0.053,0.607-0.097c0.348,0,0.348,0.399,0.348,0.648V68.839z"/>
	</g>
</g>
</svg>
